<?xml version="1.0" encoding="UTF-8"?>
<svg id="uuid-7b8fb820-2761-4dad-8392-88e210903d47" data-name="uuid-2bf293e6-c007-4552-9bb9-62b43168ed40" xmlns="http://www.w3.org/2000/svg" viewBox="0 0 1920 1080">
  <g id="uuid-21a0d182-dced-47a5-b7a8-1f8984cc7826" data-name="uuid-ff69c6ed-9daf-4326-a411-ffca179a0f53">
    <path id="uuid-19ecf0a5-3e83-48a5-8969-d159111c8137" data-name="uuid-6f75651d-ad92-4483-9a36-80a9abc6f26d" d="M1313.216,294.698h51.589c10.793,0,21.587,0,32.289.091,17.471,0,34.942.091,52.412.183,17.013,0,33.935.091,50.949.183h18.934c43.54.091,87.08.274,130.62.456.915,1.734,1.738,3.469,2.653,5.295l1.464,2.921c1.555,3.195,3.019,6.299,4.482,9.585l.823,1.826c.549,1.278,1.189,2.556,1.738,3.925.915,2.1,1.829,4.199,2.836,6.299,1.372,3.104,2.744,6.116,4.116,9.22,3.75,8.398,7.409,16.796,11.159,25.103l1.189,2.647c5.854,13.054,11.708,26.108,17.562,39.161,5.122,11.319,10.153,22.639,15.184,33.958,4.848,10.863,9.696,21.817,14.635,32.68,5.946,13.145,11.8,26.29,17.654,39.435,3.659,8.124,7.226,16.249,10.885,24.373,4.665,10.315,9.238,20.63,13.812,31.037,6.677,14.971,13.355,29.942,20.123,44.821,5.122,11.319,10.153,22.639,15.184,33.958,4.848,10.863,9.696,21.817,14.635,32.68,5.946,13.145,11.8,26.29,17.654,39.435,3.659,8.124,7.226,16.249,10.885,24.373,4.665,10.315,9.238,20.63,13.812,31.037,5.946,13.328,11.891,26.564,17.837,39.892,6.037,13.328,12.074,26.655,18.02,40.074.823,1.826,1.647,3.651,2.47,5.477,1.098,2.556,2.287,5.021,3.384,7.577l1.006,2.282.915,2.1.823,1.826c1.372,3.469,2.47,7.029,3.659,10.498h-257.946c-4.848-10.224-9.696-20.448-14.178-30.763-6.494-14.788-13.263-29.485-20.032-44.182-.915-1.917-1.738-3.834-2.653-5.751-.915-2.008-1.829-4.017-2.836-5.934-1.585-3.408-2.317-5.903-2.195-7.485,1.281-3.104,4.848-4.108,7.775-5.477,10.611-5.386,19.849-11.867,28.539-19.991,1.281-1.157,2.866-2.465,4.756-3.925,4.208-3.743,7.501-8.033,10.885-12.415l2.104-2.556c23.233-29.759,32.381-67.277,28.63-104.522-.549-4.199-1.372-8.307-2.287-12.506l-.549-2.282c-6.403-26.473-19.392-48.199-37.869-68.008l-1.738-1.917c-9.056-9.402-19.849-16.431-31.191-22.73l-3.019-1.734c-33.112-17.527-72.079-19.809-107.661-9.22-3.842,1.278-7.501,2.83-11.251,4.473-1.646.669-3.08,1.004-4.299,1.004l-1.281-2.83c-8.873-20.357-17.928-40.622-27.075-60.796l-1.098-2.373c-.64-1.461-1.372-2.921-2.012-4.382l-.915-2.008-.732-1.734c-.915-2.1-1.738-4.199-2.561-6.299v1.643c.183,12.963.366,25.834.366,38.796,0,6.207,0,12.506.183,18.713.091,6.025.091,12.05.091,18.074v6.846c.305,13.206-1.799,22.243-6.311,27.112-2.287,2.191-4.756,4.108-7.226,6.025-20.672,17.527-32.746,52.124-35.399,78.323-3.019,39.983,7.684,77.684,33.935,108.264,2.5,2.86,5.153,5.538,7.958,8.033,3.293,2.647,5.214,4.656,6.129,8.855.183,3.56.183,7.029,0,10.498v3.834c-.732,27.568-7.958,51.211-26.16,72.207l-1.829,2.1c-9.421,10.041-21.404,17.07-33.844,22.547l-2.927,1.369c-5.671,2.373-11.342,3.925-17.379,5.295l-1.921.456c-17.288,3.56-35.765,2.191-53.419,2.1h-55.248c-15.367,0-30.643,0-46.01-.091h-175.257c-33.112,0-60.553-5.934-85.342-29.485-24.057-24.921-30.185-55.045-30.185-88.547v-469.754h248.799v414.892c0,9.676.274,16.888,6.22,25.012l1.555,2.282c5.763,8.307,14.269,13.602,24.057,15.975,7.866,1.187,15.093-.822,21.587-5.295,6.586-5.386,10.428-11.867,14.086-19.352l1.464-2.921c2.195-6.025,1.646-12.689,1.646-18.987v-337.756c-.091-21.635,3.75-43.817,19.209-59.974,13.08-12.78,28.173-15.153,45.827-15.062h0l.64-.091h.002,0Z" fill="#fff"/>
    <path id="uuid-e03caa78-446f-47af-a26d-21d47c2b9a7b" data-name="uuid-e2365b38-c1c5-436d-905e-2889b39da36e" d="M1611.867,540.438c1.464.822,2.927,1.552,4.391,2.373,27.624,14.971,48.662,42.539,57.992,72.207,1.189,4.017,2.195,8.033,3.201,12.141.244.913.457,1.856.64,2.83,4.208,21.269,2.195,43.269-4.299,63.808-.183.639-.366,1.278-.64,1.917-9.879,30.215-32.655,56.597-60.736,71.385-31.557,15.975-67.231,19.809-101.166,8.763-12.623-4.382-24.331-10.407-35.125-18.257-.732-.548-1.464-1.004-2.195-1.552-26.16-19.809-44.272-49.477-49.394-81.883-4.756-34.415,3.11-69.377,24.148-97.31,21.13-27.112,49.668-44.456,83.604-50.481,27.441-3.286,55.157.639,79.396,13.967l.183.091h0Z" fill="#fff"/>
  </g>
  <g id="uuid-cae4f145-f5c6-4e5d-b1d7-75929d250da9" data-name="uuid-da9902ad-a579-44ec-9857-a75aa4df535b">
    <g>
      <rect x="642.849" y="501.39" width="247.629" height="176.105" fill="#fff"/>
      <path d="M-1,466.485v-7.498c21.015-134.842,124.717-157.232,247.71-169.499l-.29,178.655-247.421-1.657h0Z" fill="#fff"/>
      <path d="M566.573,899.753c-69.479-2.002-240.334-64.523-240.921-133.717l-4.316-510.815-133.683-5.369,255.867-172.536,258.326,172.304-133.43,4.536-1.842,645.597h0Z" fill="#fff"/>
      <polygon points="247.045 892.112 -.799 894.136 -1 500.602 246.599 500.497 247.045 892.112" fill="#fff"/>
      <path d="M890.158,717.191c7.889,148.017-134.366,165.825-246.7,183.026l-1.114-185.141,247.807,2.115h.007Z" fill="#fff"/>
    </g>
    <rect x="642.79" y="291.842" width="247.629" height="176.105" fill="#fff"/>
  </g>
</svg>