<?xml version="1.0" encoding="UTF-8"?>
<svg id="uuid-5f4282c3-0c74-478f-8ddc-42f964b2e450" data-name="Layer 1" xmlns="http://www.w3.org/2000/svg" viewBox="0 0 1074.1 645.766">
  <g id="uuid-bb3f52ef-8bcf-4e26-b281-5a41fbec98b3" data-name="svg242">
    <path id="uuid-59395e56-9ea0-45d0-a5cb-2a7a3622e132" data-name="path182" d="M421,0h56.4c11.8,0,23.6,0,35.3.1,19.1,0,38.2.1,57.3.2,18.6,0,37.1.1,55.7.2h20.7c47.6.1,95.2.3,142.8.5,1,1.9,1.9,3.8,2.9,5.8l1.6,3.2c1.7,3.5,3.3,6.9,4.9,10.5l.9,2c.6,1.4,1.3,2.8,1.9,4.3,1,2.3,2,4.6,3.1,6.9,1.5,3.4,3,6.7,4.5,10.1,4.1,9.2,8.1,18.4,12.2,27.5l1.3,2.9c6.4,14.3,12.8,28.6,19.2,42.9,5.6,12.4,11.1,24.8,16.6,37.2,5.3,11.9,10.6,23.9,16,35.8,6.5,14.4,12.9,28.8,19.3,43.2,4,8.9,7.9,17.8,11.9,26.7,5.1,11.3,10.1,22.6,15.1,34,7.3,16.4,14.6,32.8,22,49.1,5.6,12.4,11.1,24.8,16.6,37.2,5.3,11.9,10.6,23.9,16,35.8,6.5,14.4,12.9,28.8,19.3,43.2,4,8.9,7.9,17.8,11.9,26.7,5.1,11.3,10.1,22.6,15.1,34,6.5,14.6,13,29.1,19.5,43.7,6.6,14.6,13.2,29.2,19.7,43.9.9,2,1.8,4,2.7,6,1.2,2.8,2.5,5.5,3.7,8.3l1.1,2.5,1,2.3.9,2c1.5,3.8,2.7,7.7,4,11.5h-282c-5.3-11.2-10.6-22.4-15.5-33.7-7.1-16.2-14.5-32.3-21.9-48.4-1-2.1-1.9-4.2-2.9-6.3-1-2.2-2-4.4-3.1-6.5-1.733-3.733-2.533-6.467-2.4-8.2,1.4-3.4,5.3-4.5,8.5-6,11.6-5.9,21.7-13,31.2-21.9,1.4-1.267,3.133-2.7,5.2-4.3,4.6-4.1,8.2-8.8,11.9-13.6l2.3-2.8c25.4-32.6,35.4-73.7,31.3-114.5-.6-4.6-1.5-9.1-2.5-13.7l-.6-2.5c-7-29-21.2-52.8-41.4-74.5l-1.9-2.1c-9.9-10.3-21.7-18-34.1-24.9l-3.3-1.9c-36.2-19.2-78.8-21.7-117.7-10.1-4.2,1.4-8.2,3.1-12.3,4.9-1.8.733-3.367,1.1-4.7,1.1l-1.4-3.1c-9.7-22.3-19.6-44.5-29.6-66.6l-1.2-2.6c-.7-1.6-1.5-3.2-2.2-4.8l-1-2.2-.8-1.9c-1-2.3-1.9-4.6-2.8-6.9v1.8c.2,14.2.4,28.3.4,42.5,0,6.8,0,13.7.2,20.5.1,6.6.1,13.2.1,19.8v7.5c.333,14.467-1.967,24.367-6.9,29.7-2.5,2.4-5.2,4.5-7.9,6.6-22.6,19.2-35.8,57.1-38.7,85.8-3.3,43.8,8.4,85.1,37.1,118.6,2.733,3.133,5.633,6.067,8.7,8.8,3.6,2.9,5.7,5.1,6.7,9.7.2,3.9.2,7.7,0,11.5v4.2c-.8,30.2-8.7,56.1-28.6,79.1l-2,2.3c-10.3,11-23.4,18.7-37,24.7l-3.2,1.5c-6.2,2.6-12.4,4.3-19,5.8l-2.1.5c-18.9,3.9-39.1,2.4-58.4,2.3h-60.4c-16.8,0-33.5,0-50.3-.1H126.3c-36.2,0-66.2-6.5-93.3-32.3C6.7,585.7,0,552.7,0,516V1.4h272v454.5c0,10.6.3,18.5,6.8,27.4l1.7,2.5c6.3,9.1,15.6,14.9,26.3,17.5,8.6,1.3,16.5-.9,23.6-5.8,7.2-5.9,11.4-13,15.4-21.2l1.6-3.2c2.4-6.6,1.8-13.9,1.8-20.8V82.3c-.1-23.7,4.1-48,21-65.7C384.5,2.6,401,0,420.3.1h0l.7-.1Z" fill="#009fdc"/>
    <path id="uuid-03748e4b-6d8e-46b9-a021-2b6ab584a243" data-name="path184" d="M747.5,269.2c1.6.9,3.2,1.7,4.8,2.6,30.2,16.4,53.2,46.6,63.4,79.1,1.3,4.4,2.4,8.8,3.5,13.3.267,1,.5,2.033.7,3.1,4.6,23.3,2.4,47.4-4.7,69.9-.2.7-.4,1.4-.7,2.1-10.8,33.1-35.7,62-66.4,78.2-34.5,17.5-73.5,21.7-110.6,9.6-13.8-4.8-26.6-11.4-38.4-20-.8-.6-1.6-1.1-2.4-1.7-28.6-21.7-48.4-54.2-54-89.7-5.2-37.7,3.4-76,26.4-106.6,23.1-29.7,54.3-48.7,91.4-55.3,30-3.6,60.3.7,86.8,15.3l.2.1Z" fill="#f15f65"/>
  </g>
</svg>